<mxfile host="drawio-plugin" modified="2024-02-03T09:27:49.883Z" agent="5.0 (Windows NT 6.2; Win64; x64) AppleWebKit/537.36 (KHTML, like Gecko) Chrome/104.0.5112.102 Safari/537.36" etag="vUSNtV_xqPGwNYOy1BS4" version="20.5.3" type="embed"><diagram id="ig8V-UeP-AiyhVHzHF7l" name="Page-1"><mxGraphModel dx="1072" dy="563" grid="0" gridSize="10" guides="1" tooltips="1" connect="1" arrows="1" fold="1" page="0" pageScale="1" pageWidth="850" pageHeight="1100" math="0" shadow="0"><root><mxCell id="0"/><mxCell id="1" parent="0"/><mxCell id="5" value="calling methed gnomSort(array)" style="rounded=1;whiteSpace=wrap;html=1;fillColor=#4D4D4D;" parent="1" vertex="1"><mxGeometry x="56" y="54" width="120" height="38" as="geometry"/></mxCell><mxCell id="8" value="creating n = arr.length index = 0" style="rounded=1;whiteSpace=wrap;html=1;fillColor=#4D4D4D;" parent="1" vertex="1"><mxGeometry x="39" y="168" width="120" height="38" as="geometry"/></mxCell><mxCell id="9" value="while" style="rhombus;whiteSpace=wrap;html=1;fillColor=#4D4D4D;" parent="1" vertex="1"><mxGeometry x="253" y="161" width="56" height="52" as="geometry"/></mxCell><mxCell id="11" value="" style="endArrow=classic;html=1;rounded=0;exitX=0;exitY=1;exitDx=0;exitDy=0;" parent="1" source="9" edge="1"><mxGeometry width="50" height="50" relative="1" as="geometry"><mxPoint x="252" y="223" as="sourcePoint"/><mxPoint x="114" y="271" as="targetPoint"/><Array as="points"/></mxGeometry></mxCell><mxCell id="13" value="index &amp;lt; n" style="edgeLabel;html=1;align=center;verticalAlign=middle;resizable=0;points=[];" parent="11" vertex="1" connectable="0"><mxGeometry x="-0.0456" y="3" relative="1" as="geometry"><mxPoint as="offset"/></mxGeometry></mxCell><mxCell id="14" value="if" style="rhombus;whiteSpace=wrap;html=1;fillColor=#4D4D4D;" parent="1" vertex="1"><mxGeometry x="100" y="270" width="32" height="24" as="geometry"/></mxCell><mxCell id="16" value="index++;" style="rounded=1;whiteSpace=wrap;html=1;fillColor=#4D4D4D;" parent="1" vertex="1"><mxGeometry x="17" y="343" width="66" height="26" as="geometry"/></mxCell><mxCell id="17" value="index++;" style="rounded=1;whiteSpace=wrap;html=1;fillColor=#4D4D4D;" parent="1" vertex="1"><mxGeometry x="25" y="429" width="58" height="26" as="geometry"/></mxCell><mxCell id="18" value="" style="rounded=1;whiteSpace=wrap;html=1;fillColor=#4D4D4D;" parent="1" vertex="1"><mxGeometry x="-8" y="476" width="196" height="84" as="geometry"/></mxCell><mxCell id="19" value="" style="endArrow=classic;html=1;rounded=0;exitX=0;exitY=1;exitDx=0;exitDy=0;entryX=0;entryY=0.75;entryDx=0;entryDy=0;" parent="1" source="14" target="18" edge="1"><mxGeometry width="50" height="50" relative="1" as="geometry"><mxPoint x="-75" y="366" as="sourcePoint"/><mxPoint x="-124" y="534" as="targetPoint"/><Array as="points"><mxPoint x="-127" y="288"/><mxPoint x="-127" y="360"/><mxPoint x="-127" y="533"/></Array></mxGeometry></mxCell><mxCell id="21" value="" style="endArrow=classic;html=1;rounded=0;entryX=0;entryY=0.5;entryDx=0;entryDy=0;" parent="1" target="17" edge="1"><mxGeometry width="50" height="50" relative="1" as="geometry"><mxPoint x="-126" y="442" as="sourcePoint"/><mxPoint x="-15" y="418" as="targetPoint"/></mxGeometry></mxCell><mxCell id="25" value="arr[ind]&amp;gt;=arr[ind - 1]" style="edgeLabel;html=1;align=center;verticalAlign=middle;resizable=0;points=[];" parent="21" vertex="1" connectable="0"><mxGeometry x="-0.141" y="-1" relative="1" as="geometry"><mxPoint as="offset"/></mxGeometry></mxCell><mxCell id="26" value="" style="endArrow=classic;html=1;rounded=0;entryX=0;entryY=0.5;entryDx=0;entryDy=0;" parent="1" target="16" edge="1"><mxGeometry width="50" height="50" relative="1" as="geometry"><mxPoint x="-129" y="357" as="sourcePoint"/><mxPoint y="349" as="targetPoint"/></mxGeometry></mxCell><mxCell id="28" value="ind == 0" style="edgeLabel;html=1;align=center;verticalAlign=middle;resizable=0;points=[];" parent="26" vertex="1" connectable="0"><mxGeometry x="-0.2704" y="-3" relative="1" as="geometry"><mxPoint as="offset"/></mxGeometry></mxCell><mxCell id="29" value="&lt;div style=&quot;background-color:#2b2b2b;color:#a9b7c6;font-family:'JetBrains Mono',monospace;font-size:9,8pt;&quot;&gt;&lt;pre&gt;&lt;span style=&quot;color:#cc7832;&quot;&gt;int &lt;/span&gt;temp = arr[index]&lt;span style=&quot;color:#cc7832;&quot;&gt;;&lt;br&gt;&lt;/span&gt;arr[index] = arr[index - &lt;span style=&quot;color:#6897bb;&quot;&gt;1&lt;/span&gt;]&lt;span style=&quot;color:#cc7832;&quot;&gt;;&lt;br&gt;&lt;/span&gt;arr[index - &lt;span style=&quot;color:#6897bb;&quot;&gt;1&lt;/span&gt;] = temp&lt;span style=&quot;color:#cc7832;&quot;&gt;;&lt;br&gt;&lt;/span&gt;index--&lt;span style=&quot;color:#cc7832;&quot;&gt;;&lt;/span&gt;&lt;/pre&gt;&lt;/div&gt;" style="text;html=1;align=center;verticalAlign=middle;resizable=0;points=[];autosize=1;strokeColor=none;fillColor=none;" parent="1" vertex="1"><mxGeometry x="-11.5" y="472" width="203" height="94" as="geometry"/></mxCell><mxCell id="31" value="" style="endArrow=classic;html=1;rounded=0;exitX=1;exitY=0.5;exitDx=0;exitDy=0;entryX=0.5;entryY=1;entryDx=0;entryDy=0;" parent="1" source="16" target="9" edge="1"><mxGeometry width="50" height="50" relative="1" as="geometry"><mxPoint x="143" y="363" as="sourcePoint"/><mxPoint x="193" y="313" as="targetPoint"/></mxGeometry></mxCell><mxCell id="32" value="" style="endArrow=classic;html=1;rounded=0;exitX=1;exitY=0.5;exitDx=0;exitDy=0;entryX=0.5;entryY=1;entryDx=0;entryDy=0;" parent="1" source="17" target="9" edge="1"><mxGeometry width="50" height="50" relative="1" as="geometry"><mxPoint x="113" y="434" as="sourcePoint"/><mxPoint x="163" y="384" as="targetPoint"/></mxGeometry></mxCell><mxCell id="33" value="" style="endArrow=classic;html=1;rounded=0;entryX=0.5;entryY=1;entryDx=0;entryDy=0;" parent="1" target="9" edge="1"><mxGeometry width="50" height="50" relative="1" as="geometry"><mxPoint x="183" y="480" as="sourcePoint"/><mxPoint x="253" y="400" as="targetPoint"/></mxGeometry></mxCell><mxCell id="34" value="" style="endArrow=classic;html=1;rounded=0;entryX=0.323;entryY=0.011;entryDx=0;entryDy=0;entryPerimeter=0;exitX=0;exitY=0.75;exitDx=0;exitDy=0;" parent="1" source="5" target="8" edge="1"><mxGeometry width="50" height="50" relative="1" as="geometry"><mxPoint x="357" y="221" as="sourcePoint"/><mxPoint x="407" y="171" as="targetPoint"/></mxGeometry></mxCell><mxCell id="35" value="" style="endArrow=classic;html=1;rounded=0;exitX=1;exitY=0.5;exitDx=0;exitDy=0;entryX=0;entryY=0.5;entryDx=0;entryDy=0;" parent="1" source="8" target="9" edge="1"><mxGeometry width="50" height="50" relative="1" as="geometry"><mxPoint x="348" y="221" as="sourcePoint"/><mxPoint x="398" y="171" as="targetPoint"/></mxGeometry></mxCell><mxCell id="36" value="" style="endArrow=classic;html=1;rounded=0;exitX=1;exitY=0.5;exitDx=0;exitDy=0;entryX=0.5;entryY=0;entryDx=0;entryDy=0;" parent="1" source="9" target="39" edge="1"><mxGeometry width="50" height="50" relative="1" as="geometry"><mxPoint x="220" y="360" as="sourcePoint"/><mxPoint x="362" y="329" as="targetPoint"/><Array as="points"/></mxGeometry></mxCell><mxCell id="38" value="index&amp;gt;=n" style="edgeLabel;html=1;align=center;verticalAlign=middle;resizable=0;points=[];" parent="36" vertex="1" connectable="0"><mxGeometry x="-0.2951" y="4" relative="1" as="geometry"><mxPoint as="offset"/></mxGeometry></mxCell><mxCell id="39" value="sorted array" style="shape=parallelogram;perimeter=parallelogramPerimeter;whiteSpace=wrap;html=1;fixedSize=1;fillColor=#4D4D4D;" parent="1" vertex="1"><mxGeometry x="325" y="360" width="94" height="22" as="geometry"/></mxCell></root></mxGraphModel></diagram></mxfile>